<?xml version="1.0" standalone="no"?>
<!DOCTYPE svg PUBLIC "-//W3C//DTD SVG 20010904//EN"
 "http://www.w3.org/TR/2001/REC-SVG-20010904/DTD/svg10.dtd">
<svg version="1.0" xmlns="http://www.w3.org/2000/svg"
 width="1080.000000pt" height="1080.000000pt" viewBox="0 0 1080.000000 1080.000000"
 preserveAspectRatio="xMidYMid meet">
<metadata>
Created by potrace 1.14, written by Peter Selinger 2001-2017
</metadata>
<g transform="translate(0.000000,1080.000000) scale(0.100000,-0.100000)"
fill="#000000" stroke="none">
<path d="M2115 9353 c-22 -2 -73 -8 -113 -14 -273 -40 -491 -259 -543 -543 -8
-44 -11 -900 -11 -3056 -1 -3007 0 -3109 32 -3169 5 -9 23 -47 40 -85 73 -163
197 -271 395 -345 l70 -26 1175 -3 c1085 -2 1176 -4 1188 -19 6 -9 12 -28 12
-42 0 -43 38 -150 83 -235 79 -152 233 -276 411 -332 81 -25 96 -26 230 -22
106 3 149 8 162 19 9 8 18 12 18 10 2 -7 80 22 126 47 72 39 143 96 199 159
47 52 162 238 222 359 13 26 32 47 43 49 12 3 444 6 961 8 701 2 949 6 974 15
24 8 38 8 47 1 11 -9 63 -97 148 -252 85 -155 166 -247 280 -315 68 -42 179
-87 234 -97 84 -14 307 -5 337 13 6 4 12 7 15 8 47 9 166 74 231 126 109 86
213 241 233 348 1 3 5 10 9 17 19 29 22 229 20 1123 -1 649 -5 973 -13 1010
-6 30 -12 64 -14 75 -28 154 -133 371 -246 510 -53 65 -175 176 -246 225 -145
99 -358 188 -469 195 -11 1 -30 7 -42 13 l-22 12 1 1818 c0 1175 -3 1826 -10
1842 -5 14 -10 28 -10 33 -4 75 -78 217 -156 303 -105 114 -263 193 -421 209
-55 6 -5488 13 -5580 8z m5634 -282 c122 -33 238 -152 271 -276 5 -22 10 -142
10 -267 l0 -228 -27 -1 c-157 -3 -6279 3 -6285 7 -4 3 -8 104 -8 224 0 196 2
226 21 283 39 119 135 216 252 254 62 20 73 20 2892 18 2146 -2 2841 -5 2874
-14z m278 -1044 c3 -4 5 -1635 3 -2869 0 -27 -15 -37 -70 -44 -203 -26 -441
-146 -611 -308 l-68 -66 -431 0 -430 0 -80 74 c-128 117 -259 197 -415 253
-62 22 -138 44 -165 48 -8 1 -35 5 -60 9 -210 33 -438 -3 -665 -105 -38 -17
-171 -96 -198 -118 -111 -89 -211 -193 -274 -287 -53 -77 -117 -199 -132 -249
-7 -22 -16 -49 -21 -60 -9 -20 -31 -97 -36 -125 -20 -126 -23 -247 -24 -982
l0 -818 -22 -4 c-13 -3 -538 -4 -1168 -3 l-1145 2 -59 28 c-113 52 -199 147
-228 247 -19 67 -23 5360 -4 5375 13 10 6293 11 6303 2z m-2350 -3167 c80 -11
158 -35 243 -74 138 -65 275 -178 362 -301 42 -58 100 -172 118 -230 37 -122
78 -165 155 -165 42 0 52 5 86 39 34 34 39 44 39 85 0 26 -7 63 -16 84 -8 20
-15 37 -14 37 2 0 -13 41 -32 83 -11 24 -18 48 -16 53 2 7 92 10 242 10 259 0
267 -1 241 -52 -34 -64 -66 -168 -67 -211 0 -85 59 -135 146 -126 60 7 81 30
117 129 57 158 152 314 240 395 140 126 324 219 489 245 343 54 679 -85 892
-370 45 -60 128 -217 128 -243 0 -9 4 -19 8 -22 5 -3 14 -38 21 -78 7 -40 17
-85 21 -99 18 -58 -12 -349 -39 -383 -5 -6 -14 -28 -20 -48 -48 -147 -204
-341 -358 -441 -39 -26 -78 -58 -87 -72 -40 -61 -3 -159 68 -183 81 -26 178
27 343 189 45 45 86 78 92 75 7 -5 10 -184 10 -545 -1 -491 -3 -544 -19 -594
-54 -163 -158 -268 -315 -316 -37 -12 -90 -21 -117 -21 -115 0 -269 73 -340
161 -38 47 -64 91 -210 354 -52 94 -106 190 -120 215 -14 25 -40 72 -58 105
-112 207 -190 334 -228 371 -52 50 -130 92 -197 104 -27 5 -313 9 -635 9 -624
1 -686 -3 -749 -49 -16 -11 -32 -20 -35 -20 -4 0 -24 -16 -46 -36 -41 -38 -85
-106 -165 -259 -27 -49 -57 -102 -67 -117 -10 -14 -18 -29 -18 -32 0 -4 -11
-24 -25 -46 -14 -22 -22 -40 -18 -40 5 0 4 -4 -2 -8 -11 -7 -17 -18 -66 -110
-17 -31 -48 -86 -69 -122 -58 -101 -92 -162 -111 -200 -58 -118 -172 -221
-283 -256 -241 -77 -504 66 -571 311 -15 52 -17 129 -16 595 0 294 1 538 1
543 0 18 22 1 106 -81 117 -114 221 -183 278 -185 80 -1 136 51 136 128 0 50
-26 83 -108 138 -79 54 -201 173 -247 243 -72 109 -130 247 -151 359 -19 108
-4 354 26 420 5 11 12 31 16 45 13 50 85 183 131 242 162 211 370 335 623 371
92 14 143 13 257 -3z m1796 -2112 c39 -27 49 -40 80 -98 13 -25 34 -62 45 -82
63 -110 92 -167 92 -180 0 -12 -129 -14 -845 -14 -519 -1 -845 3 -845 9 0 9
45 94 99 185 17 29 31 56 31 59 0 3 14 29 32 56 60 93 12 87 686 87 l594 0 31
-22z"/>
<path d="M2076 8819 c-71 -21 -109 -95 -87 -169 19 -64 57 -83 165 -85 110 -3
143 6 180 44 52 55 40 146 -26 194 -21 15 -46 20 -115 22 -48 2 -101 -1 -117
-6z"/>
<path d="M2732 8818 c-30 -8 -91 -68 -93 -91 0 -7 -2 -21 -4 -31 -5 -28 31
-93 62 -113 22 -14 49 -18 133 -18 95 0 108 2 139 24 59 42 74 119 35 179 -26
40 -94 63 -172 60 -38 -1 -83 -6 -100 -10z"/>
<path d="M3399 8820 c-86 -25 -125 -101 -93 -181 23 -56 76 -79 185 -79 96 0
140 17 175 67 38 56 10 152 -53 183 -31 15 -174 22 -214 10z"/>
<path d="M7527 8823 c-2 -1 -130 -3 -285 -3 -161 -1 -295 -6 -311 -11 -61 -22
-96 -93 -76 -153 16 -47 28 -61 69 -80 29 -14 84 -16 382 -16 329 0 350 1 390
20 48 24 69 62 67 123 -4 77 -61 118 -170 121 -35 1 -65 1 -66 -1z"/>
<path d="M3902 7495 c-33 -14 -954 -928 -985 -977 -21 -34 -22 -80 -2 -121 8
-18 228 -244 488 -503 528 -527 514 -516 599 -476 69 34 99 121 61 180 -10 15
-201 211 -425 436 -225 224 -408 415 -408 423 0 8 184 198 409 422 224 224
416 421 425 438 54 106 -52 223 -162 178z"/>
<path d="M5225 7495 c-46 -20 -70 -52 -110 -145 -20 -47 -40 -94 -45 -105 -5
-11 -29 -69 -55 -130 -47 -114 -58 -139 -93 -215 -11 -25 -32 -74 -47 -110
-14 -36 -30 -74 -35 -85 -5 -11 -32 -74 -60 -140 -28 -66 -62 -144 -76 -173
-13 -29 -24 -54 -24 -56 0 -2 -8 -21 -17 -42 -9 -22 -17 -41 -18 -44 -1 -3 -9
-21 -18 -40 -8 -19 -50 -116 -91 -215 -42 -99 -81 -189 -86 -200 -57 -125
-100 -239 -100 -267 0 -81 96 -149 169 -118 51 21 76 58 131 190 17 41 35 84
40 95 11 25 36 82 94 220 26 61 53 124 61 140 7 17 25 59 40 95 29 70 60 143
75 175 9 19 32 74 35 85 1 3 13 31 28 64 15 32 27 60 27 63 0 2 8 23 19 46 10
23 40 92 66 152 26 61 53 125 61 143 8 17 21 49 30 70 9 20 25 55 35 77 16 35
39 91 44 105 8 24 34 84 71 165 41 89 11 170 -73 199 -26 9 -47 16 -47 15 -1
0 -14 -7 -31 -14z"/>
<path d="M5751 7493 c-59 -25 -81 -59 -81 -129 l0 -48 425 -426 c234 -234 425
-430 425 -436 0 -5 -180 -190 -400 -409 -220 -220 -412 -416 -425 -436 -47
-67 -24 -158 48 -192 44 -21 60 -21 103 -1 34 17 913 885 967 956 33 42 38 98
14 144 -24 45 -947 961 -982 974 -46 18 -57 18 -94 3z"/>
<path d="M5485 4466 c-16 -7 -41 -26 -55 -41 -24 -25 -25 -33 -28 -178 -2 -88
-8 -154 -14 -158 -5 -3 -62 -5 -126 -3 -141 4 -180 -5 -221 -51 -51 -58 -39
-147 26 -191 23 -16 53 -20 178 -24 l150 -5 5 -150 c4 -134 7 -153 27 -181 63
-89 211 -59 229 46 4 19 5 83 4 143 -2 159 -14 147 153 147 124 0 146 3 175
20 71 44 90 123 43 188 -35 50 -86 63 -232 61 -71 -2 -131 0 -135 3 -3 4 -5
68 -5 142 2 148 -9 190 -53 220 -35 22 -87 28 -121 12z"/>
<path d="M8135 4472 c-33 -7 -74 -41 -90 -75 -20 -43 -15 -199 7 -242 40 -75
146 -86 205 -21 35 38 39 57 35 193 -2 66 -17 101 -55 126 -26 16 -74 26 -102
19z"/>
<path d="M7747 4082 c-16 -2 -46 -21 -68 -43 -31 -31 -39 -46 -39 -75 0 -54
27 -102 71 -124 47 -25 194 -28 237 -6 99 52 106 177 13 229 -34 18 -146 28
-214 19z"/>
<path d="M8415 4082 c-85 -11 -137 -107 -100 -185 25 -54 77 -77 174 -77 47 0
95 6 114 14 102 43 113 175 19 229 -32 19 -133 28 -207 19z"/>
<path d="M8098 3799 c-49 -29 -68 -78 -68 -174 0 -99 19 -145 71 -175 90 -50
180 3 194 115 8 62 0 156 -15 185 -32 60 -123 84 -182 49z"/>
<path d="M6416 3550 c-90 -27 -122 -136 -59 -204 35 -38 66 -48 158 -51 135
-3 195 38 197 135 0 47 -29 91 -76 114 -37 17 -169 21 -220 6z"/>
<path d="M7075 3550 c-113 -35 -123 -183 -17 -235 48 -24 172 -27 232 -7 68
23 102 117 64 180 -31 52 -59 65 -158 68 -50 2 -105 -1 -121 -6z"/>
</g>
</svg>
